<svg xmlns="http://www.w3.org/2000/svg" width="600" height="200" viewBox="0 0 600 200"><rect width="100%" height="100%" fill="#DDDDDD"/><path fill="#999999" d="M121.965 69.5h8.28v28.51h1.54q.84 0 1.32-.22.49-.22.99-.89l8.54-10.55q.54-.7 1.19-1.07t1.69-.37h7.57l-10.68 12.76q-1.14 1.51-2.48 2.31.7.51 1.25 1.18.56.67 1.06 1.44l11.46 16.68h-7.47q-.97 0-1.68-.32-.7-.32-1.17-1.15l-8.78-13.04q-.47-.77-.97-1-.5-.24-1.51-.24h-1.87v15.75h-8.28zm36.08 15.41h8.31v34.37h-8.31zm9.45-10.02q0 1.07-.44 2.01-.43.94-1.15 1.64-.72.71-1.69 1.13-.98.41-2.08.41-1.07 0-2.03-.41-.95-.42-1.66-1.13-.7-.7-1.12-1.64t-.42-2.01q0-1.1.42-2.07.42-.98 1.12-1.68.71-.7 1.66-1.12.96-.42 2.03-.42 1.1 0 2.08.42.97.42 1.69 1.12t1.15 1.68q.44.97.44 2.07m13.83 23.25h15.62q0-1.61-.46-3.03-.45-1.42-1.35-2.5-.91-1.07-2.3-1.69t-3.23-.62q-3.59 0-5.65 2.05-2.06 2.04-2.63 5.79m21.11 4.99h-21.27q.2 2.65.93 4.58.74 1.92 1.95 3.18 1.2 1.25 2.86 1.87t3.67.62 3.47-.47q1.45-.46 2.54-1.03t1.91-1.04 1.59-.47q1.04 0 1.55.77l2.37 3.01q-1.37 1.61-3.08 2.7t-3.57 1.74q-1.86.66-3.78.92-1.93.27-3.74.27-3.58 0-6.66-1.19-3.09-1.19-5.36-3.51-2.28-2.33-3.59-5.77-1.3-3.43-1.3-7.95 0-3.52 1.13-6.62 1.14-3.1 3.27-5.39 2.13-2.3 5.19-3.64 3.07-1.34 6.92-1.34 3.25 0 6 1.04 2.74 1.04 4.72 3.03 1.98 2 3.1 4.89 1.12 2.9 1.12 6.62 0 1.88-.4 2.53t-1.54.65m15.44-16.14.51 3.88q1.6-3.08 3.81-4.84 2.22-1.76 5.23-1.76 2.38 0 3.82 1.04l-.54 6.2q-.16.6-.48.85t-.86.25q-.5 0-1.49-.16-.99-.17-1.92-.17-1.38 0-2.45.4t-1.93 1.16q-.85.75-1.5 1.82-.66 1.07-1.23 2.45v21.17h-8.27V84.91h4.86q1.27 0 1.77.45.51.45.67 1.63m35.85 23.41v-5.79q-3.59.16-6.03.62-2.45.45-3.92 1.15-1.48.71-2.11 1.64-.64.94-.64 2.05 0 2.17 1.29 3.11t3.37.94q2.54 0 4.4-.92t3.64-2.8m-17.49-18.05-1.47-2.65q5.93-5.43 14.27-5.43 3.01 0 5.39.99t4.02 2.75 2.5 4.2q.85 2.45.85 5.36v21.71h-3.75q-1.17 0-1.81-.35t-1-1.43l-.74-2.47q-1.31 1.17-2.55 2.06-1.24.88-2.58 1.49-1.34.6-2.86.92-1.53.32-3.37.32-2.18 0-4.02-.59t-3.18-1.76-2.08-2.91q-.73-1.75-.73-4.06 0-1.3.43-2.59.44-1.29 1.42-2.47.99-1.17 2.57-2.21 1.57-1.04 3.87-1.81 2.29-.77 5.34-1.25 3.05-.49 6.97-.59v-2.01q0-3.45-1.48-5.11-1.47-1.66-4.25-1.66-2.01 0-3.33.47-1.33.47-2.33 1.06-1.01.59-1.83 1.05-.82.47-1.82.47-.87 0-1.48-.45-.6-.45-.97-1.05m40.5-5.93.57 2.71q1.04-1.04 2.2-1.93 1.15-.88 2.44-1.5t2.77-.98q1.47-.35 3.21-.35 2.82 0 4.99.96 2.18.95 3.64 2.68 1.45 1.72 2.21 4.12.75 2.39.75 5.27v21.88h-8.27V97.4q0-3.14-1.44-4.87t-4.39-1.73q-2.15 0-4.02.98-1.88.97-3.55 2.64v24.86h-8.28V84.91h5.06q1.61 0 2.11 1.51m59.97-11.03-2.25 4.26q-.4.7-.85 1.02t-1.12.32q-.71 0-1.53-.52t-1.96-1.16q-1.14-.63-2.66-1.15-1.53-.52-3.6-.52-1.88 0-3.29.45-1.4.45-2.36 1.26-.95.8-1.42 1.92-.47 1.13-.47 2.47 0 1.7.96 2.84.95 1.14 2.52 1.95 1.58.8 3.59 1.44 2.01.63 4.12 1.35t4.12 1.68q2.01.95 3.58 2.41 1.58 1.46 2.53 3.57.96 2.11.96 5.12 0 3.29-1.12 6.15-1.13 2.87-3.29 4.99-2.16 2.13-5.27 3.35-3.12 1.23-7.14 1.23-2.31 0-4.55-.46-2.25-.45-4.31-1.29-2.06-.83-3.87-2.01-1.81-1.17-3.21-2.61l2.64-4.32q.34-.47.87-.79.54-.32 1.14-.32.84 0 1.81.69t2.31 1.53q1.34.83 3.13 1.52 1.8.69 4.31.69 3.85 0 5.96-1.83t2.11-5.24q0-1.91-.95-3.12-.96-1.2-2.53-2.02-1.58-.83-3.59-1.4-2.01-.56-4.08-1.23-2.08-.67-4.09-1.61t-3.58-2.45q-1.58-1.51-2.53-3.77-.96-2.26-.96-5.57 0-2.65 1.06-5.16 1.05-2.52 3.06-4.46t4.96-3.11q2.95-1.18 6.77-1.18 4.29 0 7.9 1.34 3.62 1.34 6.17 3.75m15.68 19.57v15.41q1.4 1.71 3.06 2.41t3.6.7q1.88 0 3.39-.7 1.5-.7 2.56-2.14 1.05-1.44 1.62-3.64.57-2.19.57-5.17 0-3.02-.48-5.11-.49-2.1-1.39-3.4-.91-1.31-2.2-1.91-1.29-.61-2.93-.61-2.58 0-4.39 1.09t-3.41 3.07m-1.11-8.54.67 3.18q2.11-2.38 4.79-3.85 2.68-1.48 6.3-1.48 2.81 0 5.14 1.17 2.33 1.18 4.02 3.41 1.69 2.22 2.61 5.49.93 3.27.93 7.49 0 3.85-1.04 7.13t-2.97 5.7q-1.92 2.41-4.65 3.77-2.73 1.35-6.12 1.35-2.88 0-4.92-.89-2.05-.88-3.65-2.46v14.07h-8.28V84.91h5.06q1.61 0 2.11 1.51m49.04 23.98v-5.79q-3.58.16-6.03.62-2.44.45-3.92 1.15-1.47.71-2.11 1.64-.63.94-.63 2.05 0 2.17 1.29 3.11t3.36.94q2.55 0 4.41-.92t3.63-2.8m-17.48-18.05-1.48-2.65q5.93-5.43 14.27-5.43 3.02 0 5.4.99t4.02 2.75 2.49 4.2q.86 2.45.86 5.36v21.71h-3.75q-1.18 0-1.81-.35-.64-.35-1.01-1.43l-.74-2.47q-1.3 1.17-2.54 2.06-1.24.88-2.58 1.49-1.34.6-2.87.92-1.52.32-3.36.32-2.18 0-4.02-.59t-3.18-1.76-2.08-2.91q-.74-1.75-.74-4.06 0-1.3.44-2.59.43-1.29 1.42-2.47.99-1.17 2.56-2.21 1.58-1.04 3.87-1.81 2.3-.77 5.35-1.25 3.04-.49 6.96-.59v-2.01q0-3.45-1.47-5.11t-4.25-1.66q-2.01 0-3.34.47-1.32.47-2.33 1.06-1 .59-1.82 1.05-.82.47-1.83.47-.87 0-1.47-.45t-.97-1.05m60.13-3.19-2.18 3.02q-.37.47-.72.74-.35.26-1.02.26-.64 0-1.24-.38-.6-.39-1.44-.87-.84-.49-1.99-.87-1.16-.39-2.87-.39-2.18 0-3.82.79t-2.73 2.26-1.62 3.57q-.54 2.09-.54 4.74 0 2.74.59 4.89.58 2.14 1.69 3.6t2.68 2.21 3.55.75 3.2-.48q1.22-.49 2.06-1.07.84-.59 1.46-1.08.62-.48 1.39-.48 1 0 1.51.77l2.37 3.01q-1.37 1.61-2.98 2.7t-3.33 1.74q-1.73.66-3.55.92-1.83.27-3.64.27-3.18 0-5.99-1.19-2.82-1.19-4.93-3.46-2.11-2.28-3.33-5.58t-1.22-7.52q0-3.79 1.09-7.02 1.08-3.23 3.19-5.6 2.12-2.36 5.23-3.7 3.12-1.34 7.17-1.34 3.85 0 6.75 1.24t5.21 3.55m12.03 8.98h15.61q0-1.61-.46-3.03-.45-1.42-1.35-2.5-.91-1.07-2.3-1.69t-3.23-.62q-3.58 0-5.64 2.05-2.06 2.04-2.63 5.79m21.1 4.99h-21.27q.2 2.65.94 4.58.73 1.92 1.94 3.18 1.21 1.25 2.86 1.87 1.66.62 3.67.62t3.47-.47q1.46-.46 2.55-1.03 1.08-.57 1.9-1.04.83-.47 1.6-.47 1.03 0 1.54.77l2.38 3.01q-1.38 1.61-3.09 2.7-1.7 1.09-3.56 1.74-1.86.66-3.79.92-1.93.27-3.73.27-3.59 0-6.67-1.19t-5.36-3.51q-2.28-2.33-3.59-5.77-1.3-3.43-1.3-7.95 0-3.52 1.14-6.62t3.26-5.39q2.13-2.3 5.2-3.64 3.06-1.34 6.91-1.34 3.25 0 6 1.04t4.72 3.03q1.98 2 3.1 4.89 1.12 2.9 1.12 6.62 0 1.88-.4 2.53t-1.54.65"/></svg>